<svg width="377" height="344" viewBox="0 0 377 344" fill="none" xmlns="http://www.w3.org/2000/svg">
<path d="M54.4115 183.913C54.3477 183.982 54.2835 184.052 54.219 184.122C51.479 187.102 48.1332 190.744 44.628 194.566C38.3755 201.385 31.6156 208.779 26.8807 214.012C16.014 226.022 12.0105 235.745 9.7228 241.464C7.89263 246.04 3.43158 259.194 2.85965 267.201C2.28772 275.208 5.14737 278.526 7.43508 282.643C10.2947 287.791 18.3017 297.514 25.1649 302.089C32.0281 306.664 86.9333 318.103 102.375 319.247C114.559 320.149 132.68 318.974 144.126 317.531C160.503 315.467 181.3 314.56 197.316 318.675C213.33 322.789 247.645 328.97 256.796 328.97C264.025 328.97 275.196 328.226 280.063 327.84C279.842 328.19 278.53 331.408 278.53 334.117C278.53 336.977 282.533 338.121 286.537 338.121C288.337 337.97 290.052 337.802 291.684 337.619C293.083 337.462 294.422 337.295 295.701 337.119C302.898 336.13 308.224 334.873 312.004 333.734C311.327 334.034 310.653 334.326 309.985 334.609C304.475 336.938 299.273 338.676 295.196 339.259C287.206 340.4 274.447 342.55 260.689 343.338C246.939 344.126 232.12 343.559 220.001 339.231C196.018 330.666 175.553 327.848 160.841 331.243C153.333 332.975 138.26 333.831 123.168 333.545C115.613 333.402 108.034 332.972 101.372 332.219C94.7214 331.467 88.946 330.389 85.0187 328.934C77.3426 326.091 65.824 323.817 54.4182 321.163C43.0696 318.522 31.8201 315.501 24.8622 311.153C17.9493 306.832 11.752 301.359 7.27758 295.874C2.82319 290.414 0 284.849 0 280.356C0 271.746 1.71636 248.18 11.509 230.323C21.2457 212.568 33.8879 195.873 47.173 187.787C49.3542 186.459 51.8156 185.16 54.4115 183.913Z" fill="#E48128"/>
<path fill-rule="evenodd" clip-rule="evenodd" d="M82.445 173.412L122.965 183.913L170.435 268.345L277.386 231.348L317.421 235.745L322.083 210.587L322.132 210.595L322.177 210.609C323.072 210.907 329.533 213.495 336.983 217.292C344.421 221.082 352.937 226.123 357.872 231.348C360.279 233.898 362.723 235.988 365.043 238.003C367.354 240.011 369.551 241.952 371.407 244.172C375.155 248.656 377.48 254.236 376.9 263.804C376.329 273.239 375.612 280.158 374.164 285.37C372.709 290.607 370.506 294.161 366.95 296.828C363.891 299.121 360.012 301.435 356.56 303.655C357.403 302.38 358.075 301.292 358.6 300.373C359.831 298.218 360.741 296.276 361.67 294.292C361.703 294.222 361.735 294.152 361.768 294.082C362.534 292.448 363.321 290.779 364.319 288.935C367.386 283.268 368.323 280.928 370.038 277.496C371.754 274.064 373.47 268.345 371.754 267.201C370.038 266.057 369.466 268.345 366.607 270.633C363.747 272.921 364.319 272.349 359.172 275.208C357.367 276.156 355.129 278.125 352.309 279.784C344.53 284.359 324.856 284.931 320.852 289.507C316.849 294.082 317.993 295.34 315.705 300.373C312.845 306.664 275.67 316.959 261.944 320.391C248.217 323.822 220.193 322.107 199.603 316.959C186.915 313.787 181.829 313.873 174.039 314.005C169.187 314.087 163.287 314.186 153.849 313.528C129.256 311.812 106.951 296.37 95.5122 283.215C86.0019 272.278 93.0965 264.9 97.4023 260.422C98.2752 259.514 99.0337 258.725 99.5157 258.05C102.375 254.047 117.818 255.191 127.54 267.773C137.263 280.355 143.554 280.356 149.274 282.643C153.849 284.474 166.813 282.453 170.435 280.928C168.719 281.309 164.258 281.728 160.14 280.356C155.752 278.893 155.104 277.431 154.3 275.614C154.161 275.299 154.018 274.974 153.849 274.636C152.975 272.889 149.765 267.804 147.023 263.46C146.175 262.118 145.373 260.846 144.698 259.766C143.403 257.694 139.056 254.682 134.582 251.583C129.179 247.84 123.591 243.967 122.965 241.464C121.821 236.889 115.53 219.159 106.951 209.436C100.088 201.658 104.663 185.415 96.6561 185.987C96.6561 185.987 90.3649 186.559 86.9333 184.272C83.5017 181.984 75.8379 193.766 70.3473 190.563C67.4782 188.889 66.4621 185.997 66.3364 183.128C66.3345 183.084 66.3328 183.041 66.3313 182.997C66.2789 181.479 66.4718 179.973 66.7672 178.662C72.9788 176.292 78.7263 174.433 82.1992 173.427L82.3199 173.393L82.445 173.412ZM235.063 251.759C232.203 255.763 243.756 250.158 241.926 252.903C239.638 256.335 233.919 256.907 227.056 260.338C220.193 263.77 211.614 269.489 217.905 272.921C222.938 275.666 234.11 274.064 239.067 272.921C237.16 272.539 232.661 271.662 229.916 271.205C227.17 270.747 232.203 269.108 235.063 268.345C243.833 264.914 264.117 256.678 268.235 253.475C270.977 251.342 267.663 250.043 268.235 247.756C268.807 245.468 277.386 244.896 273.954 243.18L235.063 251.759ZM278.53 242.036C277.958 244.896 281.961 242.608 282.533 244.324C281.618 247.527 272.81 248.328 273.382 250.043C273.954 251.759 285.622 249.243 291.112 248.328C296.603 247.413 306.554 237.461 298.547 239.177L278.53 242.036Z" fill="#E48128"/>
<path d="M73.207 215.728C75.588 214.299 77.573 216.042 82.7924 220.627C83.8416 221.549 85.0212 222.586 86.3614 223.735C92.767 229.225 95.8935 235.936 96.6561 238.605C97.7999 242.036 95.5122 246.612 94.3684 248.9C93.2245 251.187 92.0807 252.331 86.3614 256.335C80.6421 260.338 74.3508 260.91 68.0596 259.194C61.7684 257.479 61.7684 250.043 62.3403 238.605C62.9123 227.166 70.3473 217.443 73.207 215.728Z" fill="#E48128"/>
<path d="M66.7672 178.662C63.7193 179.91 58.5876 182.089 54.219 184.122C51.479 187.102 48.1332 190.744 44.628 194.566C44.9303 194.237 65.9549 178.264 66.3313 182.997C66.2789 181.479 66.4718 179.973 66.7672 178.662Z" fill="#E48128"/>
<path d="M356.56 303.655C357.403 302.38 358.075 301.292 358.6 300.373C359.831 298.218 360.741 296.276 361.67 294.292L361.768 294.082C355.755 300.183 341.671 313.528 333.435 318.103C323.868 323.418 312.82 334.292 295.701 337.119C302.898 336.13 308.224 334.873 312.004 333.734C324.651 325.755 351.268 308.568 356.56 303.655Z" fill="#E48128"/>
<path d="M165.287 40.1455C175.01 37.8579 192.167 36.1422 197.315 36.714C202.462 37.2859 219.048 40.1456 227.056 44.149C235.062 48.1525 250.505 58.4473 254.508 65.8824C257.711 71.8304 258.893 74.8426 259.084 75.6052C255.271 69.3139 244.099 55.4732 229.915 50.4403C212.186 44.1491 200.747 40.1455 178.442 43.5771C156.137 47.0087 141.838 51.0122 132.115 56.1596C124.337 60.2773 118.961 63.2134 117.245 64.1666C119.342 61.8789 125.824 56.1595 134.975 51.5841C146.413 45.8649 155.564 42.4332 165.287 40.1455Z" fill="#E48128"/>
<path fill-rule="evenodd" clip-rule="evenodd" d="M229.343 3.54203C246.272 -4.23613 256.986 2.58881 260.227 6.97361C264.803 12.6928 264.231 13.8369 272.238 21.8438C280.245 29.8508 312.273 67.598 323.712 80.7525C335.15 93.9069 335.15 103.63 337.438 110.493C339.726 117.356 332.291 161.967 331.147 173.977C330.232 183.586 323.902 221.066 320.852 238.605C318.373 239.177 312.158 239.978 307.126 238.605C300.833 236.89 260.227 246.04 242.498 250.044C224.768 254.047 185.877 271.205 181.301 274.065C176.725 276.924 159.568 278.068 158.424 272.921C157.28 267.773 129.256 228.882 128.112 224.307C126.968 219.731 110.954 194.567 108.094 189.991C105.234 185.416 87.5047 185.988 84.0731 181.984C80.6417 177.98 80.0697 136.802 81.2135 128.795C82.3573 120.788 74.9223 79.0368 73.2065 63.0227C71.4907 47.0089 80.6417 47.0084 90.9363 39.5736C101.231 32.1386 148.128 26.9913 157.852 26.9911C167.575 26.9911 208.182 13.2648 229.343 3.54203ZM134.465 145.29C134.105 150.468 133.6 161.738 134.465 165.398C134.769 166.684 134.746 169.501 134.716 173.092C134.701 174.811 134.686 176.707 134.703 178.698C134.777 186.92 135.428 196.749 139.137 202.32C139.339 202.598 139.539 202.873 139.735 203.145C142.508 207.008 144.579 210.33 145.27 212.351C152.709 234.531 160.824 255.303 166.431 260.91C169.713 264.192 179.503 262.434 179.585 262.419C179.709 262.383 179.847 262.333 179.998 262.271C181.685 261.397 180.311 258.011 178.856 254.42C177.695 251.557 176.482 248.564 176.726 246.612C177.298 242.037 179.013 214.012 173.294 192.279C170.675 182.326 170.18 174.147 170.522 168.258C170.527 168.173 170.532 168.088 170.537 168.004C170.585 166.258 169.509 163.519 164.715 164.826C162.39 165.46 160.377 166.485 158.561 167.41C155.465 168.987 152.941 170.272 150.417 168.83C148.665 167.829 146.914 165.186 145.162 162.337L143.661 159.88C141.909 157.032 140.158 154.388 138.406 153.388C136.733 152.431 135.764 149.376 134.805 146.354V146.351C134.692 145.996 134.579 145.641 134.465 145.29ZM256.224 128.795C254.959 126.687 250.899 128.307 246.103 130.221C244.392 130.904 242.587 131.625 240.782 132.226C235.468 133.997 223.984 135.083 216.946 135.748C214.894 135.942 213.218 136.101 212.185 136.23C211.727 136.287 211.32 136.431 210.964 136.654C207.777 138.66 208.756 147.1 213.901 157.391C216.295 162.179 216.685 169.571 217.042 176.34C217.538 185.742 217.971 193.941 223.624 192.279C229.068 190.678 234.513 193.559 238.752 195.803C242.084 197.566 244.671 198.936 245.929 197.426C247.94 195.013 247.123 188.638 246.461 183.476C246.182 181.299 245.929 179.338 245.929 177.981C245.929 173.974 245.053 173.475 242.914 172.261C242.611 172.089 242.281 171.902 241.926 171.689C239.639 170.316 246.692 165.017 250.505 162.538C250.123 161.395 249.246 157.277 248.789 149.956C248.543 146.025 251.201 141.037 253.448 136.82C255.386 133.183 257.018 130.119 256.224 128.795ZM99.6269 85.328C96.6829 81.8464 93.1498 79.1476 89.7924 80.1806C88.9203 80.4489 87.9392 80.6546 86.8847 80.8084C84.8039 81.5267 82.6592 82.9132 82.3573 85.328C82.0542 87.7536 83.6805 91.3043 85.2751 94.7872C86.6884 97.8741 88.0766 100.908 88.0766 103.058C88.0766 104.767 87.6778 108.553 87.2076 113.012C86.4192 120.487 85.4307 129.857 85.7889 134.514C86.3609 141.949 90.9362 160.822 92.6521 163.682C93.4667 165.04 97.2474 166.526 101.667 168.264C106.555 170.187 112.225 172.418 115.529 175.121C116.064 175.559 116.706 176.138 117.433 176.837C116.608 168.83 115.072 152.359 115.529 150.528C116.101 148.24 112.098 137.946 109.81 133.942C107.522 129.938 106.378 114.496 106.378 108.777C106.378 104.202 101.877 91.2379 99.6269 85.328ZM106.486 96.4996C108.857 103.439 114.975 134.064 116.101 141.949C117.245 149.956 118.389 155.675 121.249 162.538C124.108 169.401 128.684 167.114 130.399 163.682C131.921 160.639 130.744 152.645 129.66 145.29C129.522 144.353 129.385 143.426 129.256 142.521C129.118 141.558 129.031 140.601 128.984 139.661C128.719 134.347 129.751 129.595 130.399 127.651C128.112 125.744 122.278 120.673 117.245 115.64C112.326 110.721 108.098 101.029 106.486 96.4996ZM147.557 117.356C144.507 117.737 137.949 119.186 136.119 121.931C133.831 125.363 131.543 131.082 132.687 133.942C133.831 136.802 145.269 156.247 148.701 161.395C150.4 163.943 151.82 163.407 154.971 162.216C158.185 161.001 163.2 159.107 172.15 159.107C189.88 159.107 204.75 141.949 199.031 135.658C193.312 129.367 184.733 125.363 177.87 126.507C172.264 127.441 167.804 125.705 164.487 124.414C163.743 124.124 163.056 123.857 162.427 123.647C161.086 123.2 160.006 123.365 158.949 123.527C157.304 123.778 155.714 124.021 153.277 121.931C151.594 120.489 151.225 119.855 150.98 119.435C150.642 118.855 150.541 118.682 147.557 117.356ZM250.259 10.3315C245.876 7.03969 241.643 3.86189 238.494 5.82975C237.047 6.73459 234.798 8.72739 232.201 11.0285C226.588 16.0011 219.346 22.4157 215.045 22.4157C208.753 22.4158 180.729 24.1316 175.01 28.7069C169.29 33.2825 133.259 42.4332 125.824 41.8613C118.388 41.2894 92.0801 41.8614 90.9363 45.2929C89.7925 48.7245 90.2601 55.3081 93.224 57.7357C93.8566 58.1754 94.4332 58.6048 94.9398 59.0192C97.488 61.1041 98.6293 63.3765 99.7688 65.6467C101.442 68.9811 103.114 72.3112 109.238 75.0332C108.666 76.7491 111.526 80.1807 113.813 82.4683C113.968 82.6227 114.185 82.8423 114.458 83.1184C118.227 86.9326 132.656 101.535 140.122 104.202C148.129 107.061 190.451 113.924 201.891 110.493C213.329 107.061 224.768 103.63 237.922 97.9104C249.92 92.6942 250.975 92.7108 253.671 92.7541C253.931 92.7583 254.207 92.7631 254.508 92.7631C257.253 92.7631 264.04 93.5256 267.091 93.9069C263.627 96.0714 260.819 95.9419 256.682 95.7512C255.354 95.6899 253.888 95.6227 252.22 95.6227C246.79 95.6228 241.359 98.1291 234.796 101.159L234.794 101.16L234.791 101.161C233.061 101.96 231.252 102.795 229.343 103.63C220.193 107.633 216.189 113.925 213.329 118.5C210.471 123.075 241.353 122.503 248.789 121.931C254.737 121.474 257.749 114.878 258.512 111.637C263.85 112.399 277.957 113.009 291.684 109.349C297.925 107.685 306.06 105.326 313.989 102.962C319.327 101.087 329.088 96.4234 325.427 92.7631C324.371 91.7066 322.796 89.6132 320.802 86.9622C314.158 78.1315 302.856 63.1101 290.54 59.5911C280.362 56.6828 271.801 40.6065 265.298 28.3942C261.569 21.3917 258.517 15.6593 256.224 14.4087C254.262 13.3386 252.245 11.8231 250.259 10.3315Z" fill="#E48128"/>
</svg>
